<?xml version="1.0" encoding="utf-8"?>
<!-- Generator: Adobe Illustrator 19.0.0, SVG Export Plug-In . SVG Version: 6.00 Build 0)  -->
<svg version="1.1" id="Layer_1" xmlns="http://www.w3.org/2000/svg" xmlns:xlink="http://www.w3.org/1999/xlink" x="0px" y="0px"
	 viewBox="131 -131 512 512" style="enable-background:new 131 -131 512 512;" xml:space="preserve">
<g id="XMLID_1_">
	<path id="XMLID_3_" d="M444.7,153.9H347c-9.3,0-16.8,7.4-16.8,16.8c0,9.3,7.4,16.8,16.8,16.8h97.7c9.3,0,16.8-7.4,16.8-16.8
		S454,153.9,444.7,153.9z"/>
	<path id="XMLID_4_" d="M347,87.8h48.4c9.3,0,16.8-7.4,16.8-16.8c0-9.3-7.4-16.8-16.8-16.8H347c-9.3,0-16.8,7.4-16.8,16.8
		C330.2,80.3,337.7,87.8,347,87.8z"/>
	<path id="XMLID_7_" d="M387-131c-141.5,0-256,114.5-256,256s114.5,256,256,256s256-114.5,256-256S528.5-131,387-131z M532.2,171.5
		c0,47.5-39.1,86.6-86.6,86.6H346c-47.5,0-86.6-39.1-86.6-86.6V70.1c0-47.5,39.1-86.6,86.6-86.6h60.5c22.3,2.8,54.9,21.4,67,47.5
		c3.7,7.4,4.7,8.4,7.4,29.8c1.9,11.2,1.9,18.6,7.4,23.3c6.5,6.5,32.6,1.9,37.2,5.6l3.7,2.8l1.9,4.7l0.9,3.7v70.6H532.2z"/>
</g>
</svg>
